<mxfile host="Electron" agent="Mozilla/5.0 (Windows NT 10.0; Win64; x64) AppleWebKit/537.36 (KHTML, like Gecko) draw.io/25.0.2 Chrome/128.0.6613.186 Electron/32.2.5 Safari/537.36" version="25.0.2">
  <diagram name="Trang-1" id="h7uPw-U88Q2d5ZRcVmx1">
    <mxGraphModel dx="2421" dy="1006" grid="1" gridSize="10" guides="1" tooltips="1" connect="1" arrows="1" fold="1" page="1" pageScale="1" pageWidth="827" pageHeight="1169" math="0" shadow="0">
      <root>
        <mxCell id="0" />
        <mxCell id="1" parent="0" />
        <mxCell id="Y4QTRUiXANydg_u97eC0-4" style="edgeStyle=orthogonalEdgeStyle;rounded=0;orthogonalLoop=1;jettySize=auto;html=1;exitX=0.5;exitY=1;exitDx=0;exitDy=0;exitPerimeter=0;" edge="1" parent="1" source="Y4QTRUiXANydg_u97eC0-2">
          <mxGeometry relative="1" as="geometry">
            <mxPoint x="-462.47058823529414" y="210" as="targetPoint" />
          </mxGeometry>
        </mxCell>
        <mxCell id="Y4QTRUiXANydg_u97eC0-2" value="Start" style="strokeWidth=2;html=1;shape=mxgraph.flowchart.start_1;whiteSpace=wrap;" vertex="1" parent="1">
          <mxGeometry x="-513" y="90" width="100" height="60" as="geometry" />
        </mxCell>
        <mxCell id="Y4QTRUiXANydg_u97eC0-3" value="End" style="strokeWidth=2;html=1;shape=mxgraph.flowchart.start_1;whiteSpace=wrap;" vertex="1" parent="1">
          <mxGeometry x="-510" y="790" width="100" height="60" as="geometry" />
        </mxCell>
        <mxCell id="Y4QTRUiXANydg_u97eC0-6" style="edgeStyle=orthogonalEdgeStyle;rounded=0;orthogonalLoop=1;jettySize=auto;html=1;exitX=0.5;exitY=1;exitDx=0;exitDy=0;" edge="1" parent="1" source="Y4QTRUiXANydg_u97eC0-5" target="Y4QTRUiXANydg_u97eC0-7">
          <mxGeometry relative="1" as="geometry">
            <mxPoint x="-460.1176470588234" y="320" as="targetPoint" />
          </mxGeometry>
        </mxCell>
        <mxCell id="Y4QTRUiXANydg_u97eC0-5" value="Nhập n" style="rounded=1;whiteSpace=wrap;html=1;absoluteArcSize=1;arcSize=14;strokeWidth=2;" vertex="1" parent="1">
          <mxGeometry x="-510" y="210" width="100" height="50" as="geometry" />
        </mxCell>
        <mxCell id="Y4QTRUiXANydg_u97eC0-8" style="edgeStyle=orthogonalEdgeStyle;rounded=0;orthogonalLoop=1;jettySize=auto;html=1;exitX=1;exitY=0.5;exitDx=0;exitDy=0;exitPerimeter=0;" edge="1" parent="1" source="Y4QTRUiXANydg_u97eC0-7">
          <mxGeometry relative="1" as="geometry">
            <mxPoint x="-320" y="370" as="targetPoint" />
          </mxGeometry>
        </mxCell>
        <mxCell id="Y4QTRUiXANydg_u97eC0-9" style="edgeStyle=orthogonalEdgeStyle;rounded=0;orthogonalLoop=1;jettySize=auto;html=1;exitX=0.5;exitY=1;exitDx=0;exitDy=0;exitPerimeter=0;" edge="1" parent="1" source="Y4QTRUiXANydg_u97eC0-7">
          <mxGeometry relative="1" as="geometry">
            <mxPoint x="-460.1176470588234" y="489.9999999999998" as="targetPoint" />
          </mxGeometry>
        </mxCell>
        <mxCell id="Y4QTRUiXANydg_u97eC0-7" value="n&amp;gt;0" style="strokeWidth=2;html=1;shape=mxgraph.flowchart.decision;whiteSpace=wrap;" vertex="1" parent="1">
          <mxGeometry x="-509.9976470588234" y="320" width="100" height="100" as="geometry" />
        </mxCell>
        <mxCell id="Y4QTRUiXANydg_u97eC0-10" value="False" style="text;html=1;align=center;verticalAlign=middle;resizable=0;points=[];autosize=1;strokeColor=none;fillColor=none;" vertex="1" parent="1">
          <mxGeometry x="-395" y="338" width="50" height="30" as="geometry" />
        </mxCell>
        <mxCell id="Y4QTRUiXANydg_u97eC0-11" value="True" style="text;html=1;align=center;verticalAlign=middle;resizable=0;points=[];autosize=1;strokeColor=none;fillColor=none;" vertex="1" parent="1">
          <mxGeometry x="-510" y="438" width="50" height="30" as="geometry" />
        </mxCell>
        <mxCell id="Y4QTRUiXANydg_u97eC0-13" style="edgeStyle=orthogonalEdgeStyle;rounded=0;orthogonalLoop=1;jettySize=auto;html=1;exitX=0.5;exitY=0;exitDx=0;exitDy=0;" edge="1" parent="1" source="Y4QTRUiXANydg_u97eC0-12">
          <mxGeometry relative="1" as="geometry">
            <mxPoint x="-400" y="230" as="targetPoint" />
            <Array as="points">
              <mxPoint x="-260" y="230" />
            </Array>
          </mxGeometry>
        </mxCell>
        <mxCell id="Y4QTRUiXANydg_u97eC0-12" value="Vui lòng nhập lại" style="rounded=1;whiteSpace=wrap;html=1;absoluteArcSize=1;arcSize=14;strokeWidth=2;" vertex="1" parent="1">
          <mxGeometry x="-310" y="345" width="100" height="50" as="geometry" />
        </mxCell>
        <mxCell id="Y4QTRUiXANydg_u97eC0-16" style="edgeStyle=orthogonalEdgeStyle;rounded=0;orthogonalLoop=1;jettySize=auto;html=1;exitX=0.5;exitY=1;exitDx=0;exitDy=0;" edge="1" parent="1" source="Y4QTRUiXANydg_u97eC0-15">
          <mxGeometry relative="1" as="geometry">
            <mxPoint x="-460" y="590" as="targetPoint" />
          </mxGeometry>
        </mxCell>
        <mxCell id="Y4QTRUiXANydg_u97eC0-15" value="i=0;i&amp;lt;=n;i++" style="rounded=1;whiteSpace=wrap;html=1;absoluteArcSize=1;arcSize=14;strokeWidth=2;" vertex="1" parent="1">
          <mxGeometry x="-510" y="490" width="100" height="50" as="geometry" />
        </mxCell>
        <mxCell id="Y4QTRUiXANydg_u97eC0-18" style="edgeStyle=orthogonalEdgeStyle;rounded=0;orthogonalLoop=1;jettySize=auto;html=1;exitX=0.5;exitY=1;exitDx=0;exitDy=0;" edge="1" parent="1" source="Y4QTRUiXANydg_u97eC0-17">
          <mxGeometry relative="1" as="geometry">
            <mxPoint x="-460" y="680" as="targetPoint" />
          </mxGeometry>
        </mxCell>
        <mxCell id="Y4QTRUiXANydg_u97eC0-17" value="n%i" style="rounded=1;whiteSpace=wrap;html=1;absoluteArcSize=1;arcSize=14;strokeWidth=2;" vertex="1" parent="1">
          <mxGeometry x="-510" y="590" width="100" height="50" as="geometry" />
        </mxCell>
        <mxCell id="Y4QTRUiXANydg_u97eC0-19" value="Printf(&quot;%d&quot;,i)" style="rounded=1;whiteSpace=wrap;html=1;absoluteArcSize=1;arcSize=14;strokeWidth=2;" vertex="1" parent="1">
          <mxGeometry x="-510" y="680" width="100" height="50" as="geometry" />
        </mxCell>
        <mxCell id="Y4QTRUiXANydg_u97eC0-20" style="edgeStyle=orthogonalEdgeStyle;rounded=0;orthogonalLoop=1;jettySize=auto;html=1;exitX=0.5;exitY=1;exitDx=0;exitDy=0;entryX=0.5;entryY=0;entryDx=0;entryDy=0;entryPerimeter=0;" edge="1" parent="1" source="Y4QTRUiXANydg_u97eC0-19" target="Y4QTRUiXANydg_u97eC0-3">
          <mxGeometry relative="1" as="geometry" />
        </mxCell>
      </root>
    </mxGraphModel>
  </diagram>
</mxfile>
